<svg width="502" height="503" viewBox="0 0 502 503" fill="none" xmlns="http://www.w3.org/2000/svg">
<line x1="343.63" y1="330.654" x2="496.011" y2="497.32" stroke="black" stroke-width="15"/>
<line x1="7.50001" y1="335.714" x2="7.50001" y2="502.381" stroke="black" stroke-width="15"/>
<line x1="1.33514e-05" y1="494.881" x2="166.667" y2="494.881" stroke="black" stroke-width="15"/>
<line x1="159.167" y1="502.381" x2="159.167" y2="335.714" stroke="black" stroke-width="15"/>
<line x1="166.667" y1="343.214" x2="-6.55671e-07" y2="343.214" stroke="black" stroke-width="15"/>
<line x1="236.883" y1="426.517" x2="341.883" y2="328.517" stroke="black" stroke-width="15"/>
<line x1="333.333" y1="328.214" x2="500" y2="328.214" stroke="black" stroke-width="15"/>
<line x1="340.833" y1="335.714" x2="340.833" y2="502.381" stroke="black" stroke-width="15"/>
<line x1="333.333" y1="161.548" x2="500" y2="161.548" stroke="black" stroke-width="15"/>
<line x1="246.698" y1="426.305" x2="161.365" y2="341.019" stroke="black" stroke-width="15"/>
<line x1="340.833" y1="166.667" x2="340.833" y2="335.714" stroke="black" stroke-width="15"/>
<line x1="492.5" y1="166.667" x2="492.5" stroke="black" stroke-width="15"/>
<line x1="492.5" y1="335.714" x2="492.5" y2="169.048" stroke="black" stroke-width="15"/>
<line x1="500" y1="7.5" x2="333.333" y2="7.5" stroke="black" stroke-width="15"/>
<line x1="340.833" x2="340.833" y2="166.667" stroke="black" stroke-width="15"/>
<line x1="338.637" y1="5.3033" x2="5.3033" y2="338.637" stroke="black" stroke-width="15"/>
<line x1="7.50001" y1="3.1621e-07" x2="7.5" y2="335.714" stroke="black" stroke-width="15"/>
<line x1="163.54" y1="171.757" x2="9.4923" y2="5.09069" stroke="black" stroke-width="15"/>
</svg>